<svg aria-hidden="true" style="position: absolute; width: 0; height: 0; overflow: hidden;" version="1.1" xmlns="http://www.w3.org/2000/svg" xmlns:xlink="http://www.w3.org/1999/xlink">
<defs>
<symbol id="icon-basket-copy" viewBox="0 0 21 32">
<path d="M10.667 0c-1.454 0.001-2.848 0.59-3.878 1.636-1.029 1.047-1.607 2.467-1.61 3.949v2.72h-4.465c-0.395 0-0.714 0.325-0.714 0.727v18.604c0 2.41 1.918 4.364 4.282 4.364h12.769c2.364 0 4.282-1.953 4.282-4.364v-18.604c0-0.193-0.075-0.378-0.209-0.514s-0.315-0.213-0.505-0.213h-4.465v-2.72c-0.003-1.482-0.581-2.902-1.61-3.949-1.030-1.047-2.424-1.635-3.878-1.636h0zM6.606 5.585c0-2.286 1.818-4.138 4.061-4.138s4.061 1.852 4.061 4.138v2.72h-8.121v-2.72zM19.906 9.76v17.876c0 0.771-0.301 1.511-0.836 2.057s-1.262 0.852-2.018 0.852h-12.769c-1.577 0-2.855-1.303-2.855-2.909v-17.876h3.751v3.935c0 0.402 0.319 0.727 0.714 0.727 0.393 0 0.714-0.325 0.714-0.727v-3.935h8.121v3.935c0 0.402 0.321 0.727 0.714 0.727 0.395 0 0.714-0.325 0.714-0.727v-3.935h3.751z"></path>
</symbol>
<symbol id="icon-close" viewBox="0 0 32 32">
<path d="M0.375 31.625c0.5 0.5 1.31 0.5 1.81 0l13.815-13.815 13.815 13.815c0.5 0.5 1.31 0.5 1.81 0s0.5-1.31 0-1.81l-13.815-13.815 13.815-13.815c0.5-0.5 0.5-1.31 0-1.81s-1.31-0.5-1.81 0l-13.815 13.815-13.815-13.815c-0.5-0.5-1.31-0.5-1.81 0s-0.5 1.31 0 1.81l13.815 13.815-13.815 13.815c-0.5 0.5-0.5 1.31 0 1.81z"></path>
</symbol>
<symbol id="icon-facebook" viewBox="0 0 17 32">
<path d="M13.767 5.313h3.075v-5.088c-0.529-0.069-2.354-0.225-4.478-0.225-4.434 0-7.471 2.65-7.471 7.519v4.481h-4.893v5.688h4.893v14.312h5.997v-14.312h4.695l0.746-5.688h-5.442v-3.919c0-1.644 0.466-2.769 2.877-2.769z"></path>
</symbol>
<symbol id="icon-full-basket" viewBox="0 0 61 32">
<path fill="#f2da91" style="fill: var(--color1, #f2da91)" d="M61.333 17.333c0 8.1-6.566 14.667-14.667 14.667s-14.667-6.566-14.667-14.667c0-8.1 6.566-14.667 14.667-14.667s14.667 6.566 14.667 14.667z"></path>
<path fill="#000" style="fill: var(--color2, #000)" d="M40.506 19.66c0.078 0.43 0.254 0.763 0.528 0.997 0.283 0.225 0.66 0.337 1.129 0.337 0.606 0 1.046-0.249 1.32-0.748 0.274-0.508 0.411-1.359 0.411-2.552-0.225 0.313-0.543 0.557-0.953 0.733-0.401 0.176-0.836 0.264-1.305 0.264-0.626 0-1.193-0.127-1.701-0.381-0.499-0.264-0.895-0.65-1.188-1.159-0.293-0.518-0.44-1.144-0.44-1.877 0-1.085 0.323-1.946 0.968-2.581 0.645-0.645 1.525-0.968 2.64-0.968 1.388 0 2.366 0.445 2.933 1.335 0.577 0.89 0.865 2.229 0.865 4.019 0 1.271-0.113 2.312-0.337 3.124-0.215 0.812-0.592 1.428-1.129 1.848-0.528 0.42-1.252 0.631-2.171 0.631-0.724 0-1.34-0.137-1.848-0.411-0.509-0.284-0.9-0.65-1.173-1.1-0.264-0.46-0.416-0.963-0.455-1.511h1.907zM42.060 17.020c0.508 0 0.909-0.156 1.203-0.469s0.44-0.733 0.44-1.261c0-0.577-0.157-1.022-0.469-1.335-0.303-0.323-0.719-0.484-1.247-0.484s-0.949 0.166-1.261 0.499c-0.303 0.323-0.455 0.753-0.455 1.291 0 0.518 0.147 0.944 0.44 1.276 0.303 0.323 0.753 0.484 1.349 0.484zM49.953 19.66c0.078 0.43 0.254 0.763 0.528 0.997 0.284 0.225 0.66 0.337 1.129 0.337 0.606 0 1.046-0.249 1.32-0.748 0.274-0.508 0.411-1.359 0.411-2.552-0.225 0.313-0.543 0.557-0.953 0.733-0.401 0.176-0.836 0.264-1.305 0.264-0.626 0-1.193-0.127-1.701-0.381-0.499-0.264-0.895-0.65-1.188-1.159-0.293-0.518-0.44-1.144-0.44-1.877 0-1.085 0.323-1.946 0.968-2.581 0.645-0.645 1.525-0.968 2.64-0.968 1.388 0 2.366 0.445 2.933 1.335 0.577 0.89 0.865 2.229 0.865 4.019 0 1.271-0.112 2.312-0.337 3.124-0.215 0.812-0.592 1.428-1.129 1.848-0.528 0.42-1.252 0.631-2.171 0.631-0.724 0-1.34-0.137-1.848-0.411-0.508-0.284-0.9-0.65-1.173-1.1-0.264-0.46-0.416-0.963-0.455-1.511h1.907zM51.508 17.020c0.508 0 0.909-0.156 1.203-0.469s0.44-0.733 0.44-1.261c0-0.577-0.156-1.022-0.469-1.335-0.303-0.323-0.719-0.484-1.247-0.484s-0.948 0.166-1.261 0.499c-0.303 0.323-0.455 0.753-0.455 1.291 0 0.518 0.147 0.944 0.44 1.276 0.303 0.323 0.753 0.484 1.349 0.484z"></path>
<path fill="#000" style="fill: var(--color2, #000)" d="M10.667 0c-1.454 0.001-2.848 0.59-3.878 1.636-1.029 1.047-1.607 2.467-1.61 3.949v2.72h-4.465c-0.395 0-0.714 0.325-0.714 0.727v18.604c0 2.41 1.918 4.364 4.282 4.364h12.769c2.364 0 4.282-1.953 4.282-4.364v-18.604c0-0.193-0.075-0.378-0.209-0.514s-0.315-0.213-0.505-0.213h-4.465v-2.72c-0.003-1.482-0.581-2.902-1.61-3.949-1.030-1.047-2.424-1.635-3.878-1.636h0zM6.606 5.585c0-2.286 1.818-4.138 4.061-4.138s4.061 1.852 4.061 4.138v2.72h-8.121v-2.72zM19.906 9.76v17.876c0 0.771-0.301 1.511-0.836 2.057s-1.262 0.852-2.018 0.852h-12.769c-1.577 0-2.855-1.303-2.855-2.909v-17.876h3.751v3.935c0 0.402 0.319 0.727 0.714 0.727 0.393 0 0.714-0.325 0.714-0.727v-3.935h8.121v3.935c0 0.402 0.321 0.727 0.714 0.727 0.395 0 0.714-0.325 0.714-0.727v-3.935h3.751z"></path>
</symbol>
<symbol id="icon-group" viewBox="0 0 32 32">
<path fill="#f2da91" style="fill: var(--color1, #f2da91)" d="M32 16c0 8.837-7.163 16-16 16s-16-7.163-16-16c0-8.837 7.163-16 16-16s16 7.163 16 16z"></path>
<path fill="#000" style="fill: var(--color2, #000)" d="M9.279 18.538c0.085 0.469 0.277 0.832 0.576 1.088 0.309 0.245 0.72 0.368 1.232 0.368 0.661 0 1.141-0.272 1.44-0.816 0.299-0.555 0.448-1.483 0.448-2.784-0.245 0.341-0.592 0.608-1.040 0.8-0.437 0.192-0.912 0.288-1.424 0.288-0.683 0-1.301-0.139-1.856-0.416-0.544-0.288-0.976-0.709-1.296-1.264-0.32-0.565-0.48-1.248-0.48-2.048 0-1.184 0.352-2.123 1.056-2.816 0.704-0.704 1.664-1.056 2.88-1.056 1.515 0 2.581 0.485 3.2 1.456 0.629 0.971 0.944 2.432 0.944 4.384 0 1.387-0.123 2.523-0.368 3.408-0.235 0.885-0.645 1.557-1.232 2.016-0.576 0.459-1.365 0.688-2.368 0.688-0.789 0-1.461-0.149-2.016-0.448-0.555-0.309-0.981-0.709-1.28-1.2-0.288-0.501-0.453-1.051-0.496-1.648h2.080zM10.975 15.658c0.555 0 0.992-0.171 1.312-0.512s0.48-0.8 0.48-1.376c0-0.629-0.171-1.115-0.512-1.456-0.331-0.352-0.784-0.528-1.36-0.528s-1.035 0.181-1.376 0.544c-0.331 0.352-0.496 0.821-0.496 1.408 0 0.565 0.16 1.029 0.48 1.392 0.331 0.352 0.821 0.528 1.472 0.528zM19.585 18.538c0.085 0.469 0.277 0.832 0.576 1.088 0.309 0.245 0.72 0.368 1.232 0.368 0.661 0 1.141-0.272 1.44-0.816 0.299-0.555 0.448-1.483 0.448-2.784-0.245 0.341-0.592 0.608-1.040 0.8-0.437 0.192-0.912 0.288-1.424 0.288-0.683 0-1.301-0.139-1.856-0.416-0.544-0.288-0.976-0.709-1.296-1.264-0.32-0.565-0.48-1.248-0.48-2.048 0-1.184 0.352-2.123 1.056-2.816 0.704-0.704 1.664-1.056 2.88-1.056 1.515 0 2.581 0.485 3.2 1.456 0.629 0.971 0.944 2.432 0.944 4.384 0 1.387-0.123 2.523-0.368 3.408-0.235 0.885-0.645 1.557-1.232 2.016-0.576 0.459-1.365 0.688-2.368 0.688-0.789 0-1.461-0.149-2.016-0.448-0.555-0.309-0.981-0.709-1.28-1.2-0.288-0.501-0.453-1.051-0.496-1.648h2.080zM21.281 15.658c0.555 0 0.992-0.171 1.312-0.512s0.48-0.8 0.48-1.376c0-0.629-0.171-1.115-0.512-1.456-0.331-0.352-0.784-0.528-1.36-0.528s-1.035 0.181-1.376 0.544c-0.331 0.352-0.496 0.821-0.496 1.408 0 0.565 0.16 1.029 0.48 1.392 0.331 0.352 0.821 0.528 1.472 0.528z"></path>
</symbol>
<symbol id="icon-insta" viewBox="0 0 32 32">
<path d="M31.887 9.402c0.15 2.642 0.15 10.554 0 13.196-0.128 2.564-0.714 4.834-2.584 6.705-1.87 1.878-4.14 2.463-6.703 2.585-2.641 0.15-10.558 0.15-13.2 0-2.563-0.128-4.826-0.714-6.703-2.585s-2.463-4.141-2.584-6.705c-0.15-2.642-0.15-10.561 0-13.203 0.129-2.563 0.707-4.834 2.584-6.705s4.148-2.456 6.703-2.578c2.641-0.15 10.558-0.15 13.2 0 2.563 0.129 4.833 0.714 6.703 2.585 1.878 1.871 2.463 4.141 2.584 6.705zM24.542 9.374c-1.064 0-1.913-0.857-1.913-1.914s0.857-1.914 1.913-1.914c1.056 0 1.913 0.857 1.913 1.914 0 1.064-0.857 1.914-1.913 1.914zM16.004 7.796c-4.54 0-8.203 3.663-8.203 8.204s3.662 8.204 8.203 8.204c4.54 0 8.203-3.663 8.203-8.204s-3.662-8.204-8.203-8.204zM16.004 21.334c-2.934 0-5.333-2.392-5.333-5.334s2.392-5.334 5.333-5.334c2.941 0 5.333 2.392 5.333 5.334s-2.399 5.334-5.333 5.334zM25.434 28.474c1.406-0.564 2.484-1.642 3.041-3.042 0.716-1.801 0.677-5.739 0.651-8.293-0.004-0.423-0.008-0.809-0.008-1.14s0.004-0.717 0.008-1.14c0.026-2.552 0.066-6.486-0.651-8.293-0.564-1.407-1.642-2.485-3.041-3.042-1.806-0.713-5.763-0.675-8.315-0.65-0.414 0.004-0.791 0.008-1.116 0.008-0.331 0-0.716-0.004-1.14-0.008-2.551-0.026-6.484-0.066-8.291 0.651-1.406 0.564-2.484 1.642-3.041 3.042-0.713 1.806-0.675 5.764-0.65 8.316 0.004 0.414 0.008 0.791 0.008 1.116 0 0.331-0.004 0.717-0.008 1.14-0.026 2.552-0.066 6.486 0.651 8.293 0.564 1.407 1.642 2.485 3.041 3.042 1.806 0.713 5.763 0.675 8.315 0.65 0.414-0.004 0.791-0.008 1.116-0.008 0.331 0 0.716 0.004 1.14 0.008 2.551 0.026 6.485 0.066 8.291-0.651z"></path>
</symbol>
<symbol id="icon-location" viewBox="0 0 21 32">
<path d="M10.607 0.319c0.020-0.003 0.039-0.005 0.059-0.005l0 0h0.043c0.026 0 0.051 0.004 0.075 0.011 5.817 0.061 10.548 4.483 10.548 9.968 0 1.788-0.52 3.465-1.398 4.914v0.011c-0.009 0.022-0.020 0.043-0.032 0.065v-0.001c-0.002 0.003-0.004 0.005-0.007 0.007-0.001 0.001-0.003 0.002-0.004 0.004v0.011h-0.011c-0.003 0.012-0.007 0.023-0.011 0.034v0l-8.828 14.452c-0.069 0.112-0.191 0.18-0.323 0.18s-0.254-0.069-0.323-0.18l-8.936-14.452c-0.002-0.003-0.004-0.005-0.007-0.007-0.001-0.001-0.003-0.002-0.004-0.004-0.012-0.017-0.023-0.035-0.032-0.054-0.004-0.011-0.008-0.021-0.011-0.032v-0.011c-0.887-1.454-1.409-3.139-1.409-4.936 0-5.485 4.731-9.907 10.548-9.968 0.020 0 0.040-0.003 0.059-0.005zM16.451 10.689c0-3.192-2.593-5.785-5.785-5.785s-5.785 2.593-5.785 5.785 2.593 5.785 5.785 5.785c3.192 0 5.785-2.593 5.785-5.785z"></path>
</symbol>
<symbol id="icon-logo-aurora" viewBox="0 0 162 32">
<path d="M7.978 31.114l1.95-5.718h11.745l1.95 5.718h8.067l-11.479-31.114h-8.731l-11.479 31.114h7.978zM19.723 19.634h-7.845l3.945-11.524 3.9 11.524zM49.529 30.094c1.403-0.857 2.46-2.009 3.169-3.457v4.476h7.623v-24.731h-7.623v13.119c0 1.802-0.443 3.191-1.33 4.166s-2.098 1.463-3.634 1.463c-1.477 0-2.652-0.466-3.524-1.396s-1.307-2.238-1.307-3.922v-13.429h-7.535v14.36c0 3.309 0.835 5.91 2.504 7.801s3.923 2.837 6.759 2.837c1.862 0 3.494-0.428 4.898-1.285zM74.238 31.114h-7.579v-24.731h7.579v4.654c0.946-1.507 2.164-2.704 3.657-3.59s3.11-1.33 4.853-1.33v8.111h-2.172c-2.009 0-3.568 0.428-4.676 1.285s-1.662 2.305-1.662 4.344v11.258zM105.197 29.895c1.935-1.019 3.457-2.489 4.565-4.41s1.662-4.166 1.662-6.737c0-2.571-0.554-4.816-1.662-6.737s-2.63-3.391-4.565-4.41-4.129-1.529-6.582-1.529c-2.452 0-4.654 0.51-6.604 1.529s-3.479 2.489-4.587 4.41c-1.108 1.921-1.662 4.166-1.662 6.737s0.554 4.816 1.662 6.737c1.108 1.921 2.637 3.39 4.587 4.41s4.151 1.529 6.604 1.529c2.453 0 4.646-0.51 6.582-1.529zM98.615 24.82c-1.448 0-2.667-0.517-3.656-1.551s-1.485-2.541-1.485-4.521c0-1.98 0.495-3.494 1.485-4.543s2.209-1.573 3.656-1.573c1.448 0 2.659 0.524 3.634 1.573s1.463 2.563 1.463 4.543c0 1.98-0.487 3.487-1.463 4.521s-2.186 1.551-3.634 1.551zM124.055 19.856c0-2.039 0.554-3.487 1.662-4.344s2.667-1.285 4.676-1.285h2.172v-8.111c-1.743 0-3.361 0.443-4.853 1.33s-2.711 2.083-3.656 3.59v-4.654h-7.579v24.731h7.579v-11.258zM146.26 31.424c-2.039 0-3.863-0.51-5.474-1.529s-2.881-2.489-3.812-4.41c-0.931-1.921-1.396-4.166-1.396-6.737 0-2.6 0.465-4.853 1.396-6.759s2.201-3.368 3.812-4.388 3.435-1.529 5.474-1.529c1.891 0 3.516 0.428 4.875 1.285s2.364 2.024 3.014 3.501v-4.476h7.535v24.731h-7.535v-4.476c-0.65 1.477-1.655 2.645-3.014 3.501s-2.984 1.285-4.875 1.285zM144.776 23.18c0.99 1.064 2.297 1.595 3.923 1.595 1.595 0 2.903-0.547 3.922-1.64s1.529-2.556 1.529-4.388c0-1.862-0.51-3.332-1.529-4.41s-2.327-1.618-3.922-1.618c-1.625 0-2.933 0.532-3.923 1.596s-1.485 2.541-1.485 4.432c0 1.891 0.495 3.368 1.485 4.432z"></path>
</symbol>
<symbol id="icon-menu-burger" viewBox="0 0 43 32">
<path d="M0 0h42.667v6.4h-42.667v-6.4zM0 12.8h42.667v6.4h-42.667v-6.4zM42.667 25.6h-42.667v6.4h42.667v-6.4z"></path>
</symbol>
<symbol id="icon-search" viewBox="0 0 30 32">
<path d="M3.899 3.905c2.518-2.518 5.866-3.905 9.427-3.905s6.909 1.387 9.427 3.905c4.877 4.876 5.179 12.622 0.905 17.853l6.263 6.263c0.526 0.526 0.526 1.379 0 1.906-0.263 0.263-0.608 0.395-0.953 0.395s-0.69-0.132-0.953-0.395l-6.263-6.263c-2.373 1.942-5.318 2.999-8.427 2.999-3.561 0-6.909-1.387-9.427-3.905-5.198-5.197-5.198-13.655 0-18.854l0 0zM5.805 20.853c2.010 2.010 4.68 3.115 7.521 3.115s5.511-1.107 7.521-3.115c4.147-4.147 4.147-10.896 0-15.042-2.010-2.008-4.68-3.115-7.521-3.115s-5.511 1.107-7.521 3.115c-4.147 4.148-4.147 10.896 0 15.042z"></path>
</symbol>
<symbol id="icon-search-small" viewBox="0 0 32 32">
<path d="M13.812 0c3.691 0 7.161 1.378 9.77 3.879 5.055 4.844 5.367 12.54 0.938 17.737l6.491 6.222c0.546 0.523 0.546 1.37 0 1.893-0.273 0.262-0.63 0.392-0.987 0.392s-0.715-0.131-0.988-0.392l-6.491-6.222c-2.459 1.93-5.512 2.98-8.734 2.98-3.691 0-7.161-1.378-9.77-3.879-5.388-5.163-5.388-13.566 0-18.73 2.61-2.501 6.080-3.879 9.771-3.879zM6.016 20.717c2.083 1.996 4.851 3.095 7.795 3.095s5.712-1.1 7.795-3.095c4.298-4.12 4.298-10.824 0-14.944-2.083-1.995-4.851-3.095-7.795-3.095s-5.712 1.1-7.795 3.095c-4.298 4.121-4.298 10.824 0 14.944z"></path>
</symbol>
<symbol id="icon-sign-in-register" viewBox="0 0 283 32">
<path fill="#fff" style="fill: var(--color3, #fff)" d="M6.184 22.343c-1.318 0-2.509-0.226-3.574-0.677-1.047-0.451-1.877-1.101-2.491-1.95s-0.93-1.85-0.948-3.006h4.062c0.054 0.776 0.325 1.39 0.812 1.841 0.505 0.451 1.191 0.677 2.058 0.677 0.885 0 1.58-0.208 2.085-0.623 0.505-0.433 0.758-0.993 0.758-1.679 0-0.56-0.171-1.020-0.514-1.381s-0.776-0.641-1.3-0.839c-0.505-0.217-1.209-0.451-2.112-0.704-1.228-0.361-2.229-0.713-3.006-1.056-0.758-0.361-1.417-0.894-1.977-1.598-0.542-0.722-0.812-1.679-0.812-2.87 0-1.119 0.28-2.094 0.839-2.924s1.345-1.462 2.356-1.895c1.011-0.451 2.166-0.677 3.466-0.677 1.95 0 3.529 0.478 4.738 1.435 1.227 0.939 1.904 2.256 2.031 3.953h-4.17c-0.036-0.65-0.316-1.182-0.839-1.598-0.505-0.433-1.182-0.65-2.031-0.65-0.74 0-1.336 0.19-1.787 0.569-0.433 0.379-0.65 0.93-0.65 1.652 0 0.505 0.162 0.93 0.487 1.273 0.343 0.325 0.758 0.596 1.246 0.812 0.505 0.199 1.209 0.433 2.112 0.704 1.227 0.361 2.229 0.722 3.006 1.083s1.444 0.903 2.004 1.625c0.56 0.722 0.839 1.67 0.839 2.843 0 1.011-0.262 1.95-0.785 2.816s-1.291 1.561-2.302 2.085c-1.011 0.505-2.211 0.758-3.601 0.758zM20.542 5.366c-0.668 0-1.227-0.208-1.679-0.623-0.433-0.433-0.65-0.966-0.65-1.598s0.217-1.155 0.65-1.57c0.451-0.433 1.011-0.65 1.679-0.65s1.218 0.217 1.652 0.65c0.451 0.415 0.677 0.939 0.677 1.57s-0.226 1.164-0.677 1.598c-0.433 0.415-0.984 0.623-1.652 0.623zM22.41 7.153v15.001h-3.791v-15.001h3.791zM34.493 6.91c1.119 0 2.103 0.226 2.951 0.677 0.849 0.433 1.516 1.002 2.004 1.706v-2.139h3.818v15.109c0 1.39-0.28 2.626-0.839 3.71-0.559 1.101-1.399 1.968-2.518 2.599-1.119 0.65-2.473 0.975-4.062 0.975-2.13 0-3.881-0.497-5.253-1.489-1.354-0.993-2.121-2.347-2.302-4.062h3.764c0.199 0.686 0.623 1.228 1.273 1.625 0.668 0.415 1.471 0.623 2.41 0.623 1.101 0 1.995-0.334 2.681-1.002 0.686-0.65 1.029-1.643 1.029-2.978v-2.329c-0.487 0.704-1.164 1.291-2.031 1.76-0.849 0.469-1.823 0.704-2.924 0.704-1.264 0-2.419-0.325-3.466-0.975s-1.877-1.561-2.491-2.735c-0.596-1.191-0.894-2.554-0.894-4.089 0-1.516 0.298-2.861 0.894-4.034 0.614-1.173 1.435-2.076 2.464-2.708 1.047-0.632 2.211-0.948 3.493-0.948zM39.448 14.654c0-0.921-0.18-1.706-0.542-2.356-0.361-0.668-0.849-1.173-1.462-1.516-0.614-0.361-1.273-0.542-1.977-0.542s-1.354 0.171-1.95 0.514c-0.596 0.343-1.083 0.848-1.462 1.516-0.361 0.65-0.542 1.426-0.542 2.329s0.18 1.697 0.542 2.383c0.379 0.668 0.866 1.182 1.462 1.543 0.614 0.361 1.264 0.542 1.95 0.542 0.704 0 1.363-0.172 1.977-0.514 0.614-0.361 1.101-0.866 1.462-1.516 0.361-0.668 0.542-1.462 0.542-2.383zM57.742 6.937c1.787 0 3.231 0.569 4.332 1.706 1.101 1.119 1.652 2.69 1.652 4.711v8.8h-3.791v-8.286c0-1.191-0.298-2.103-0.894-2.735-0.596-0.65-1.408-0.975-2.437-0.975-1.047 0-1.877 0.325-2.491 0.975-0.596 0.632-0.894 1.543-0.894 2.735v8.286h-3.791v-15.001h3.791v1.868c0.505-0.65 1.146-1.155 1.922-1.516 0.794-0.379 1.661-0.569 2.599-0.569zM80.628 5.366c-0.668 0-1.227-0.208-1.679-0.623-0.433-0.433-0.65-0.966-0.65-1.598s0.217-1.155 0.65-1.57c0.451-0.433 1.011-0.65 1.679-0.65s1.218 0.217 1.652 0.65c0.451 0.415 0.677 0.939 0.677 1.57s-0.225 1.164-0.677 1.598c-0.433 0.415-0.984 0.623-1.652 0.623zM82.497 7.153v15.001h-3.791v-15.001h3.791zM97.016 6.937c1.787 0 3.231 0.569 4.332 1.706 1.101 1.119 1.652 2.69 1.652 4.711v8.8h-3.791v-8.286c0-1.191-0.298-2.103-0.894-2.735-0.596-0.65-1.408-0.975-2.437-0.975-1.047 0-1.877 0.325-2.491 0.975-0.596 0.632-0.894 1.543-0.894 2.735v8.286h-3.791v-15.001h3.791v1.868c0.505-0.65 1.146-1.155 1.922-1.516 0.794-0.379 1.661-0.569 2.599-0.569zM131.118 25.43h-3.818v-25.154h3.818v25.154zM165.285 22.154l-4.17-7.365h-1.787v7.365h-3.791v-18.9h7.094c1.462 0 2.708 0.262 3.737 0.785 1.029 0.505 1.796 1.2 2.302 2.085 0.524 0.866 0.785 1.841 0.785 2.924 0 1.246-0.361 2.374-1.083 3.385-0.722 0.993-1.796 1.679-3.222 2.058l4.522 7.663h-4.386zM159.328 11.946h3.168c1.029 0 1.796-0.244 2.302-0.731 0.506-0.505 0.758-1.2 0.758-2.085 0-0.866-0.253-1.534-0.758-2.004-0.505-0.487-1.273-0.731-2.302-0.731h-3.168v5.551zM189.29 14.329c0 0.542-0.036 1.029-0.108 1.462h-10.966c0.090 1.083 0.469 1.932 1.137 2.545s1.489 0.921 2.464 0.921c1.408 0 2.41-0.605 3.006-1.814h4.089c-0.433 1.444-1.263 2.636-2.491 3.574-1.228 0.921-2.735 1.381-4.522 1.381-1.444 0-2.744-0.316-3.899-0.948-1.137-0.65-2.031-1.561-2.681-2.735-0.632-1.173-0.948-2.527-0.948-4.062 0-1.552 0.316-2.915 0.948-4.089s1.516-2.076 2.654-2.708c1.137-0.632 2.446-0.948 3.926-0.948 1.426 0 2.699 0.307 3.818 0.921 1.137 0.614 2.013 1.489 2.626 2.626 0.632 1.119 0.948 2.41 0.948 3.872zM185.364 13.246c-0.018-0.975-0.37-1.751-1.056-2.329-0.686-0.596-1.525-0.894-2.518-0.894-0.939 0-1.733 0.289-2.383 0.866-0.632 0.56-1.020 1.345-1.164 2.356h7.121zM200.394 6.91c1.119 0 2.103 0.226 2.951 0.677 0.848 0.433 1.516 1.002 2.004 1.706v-2.139h3.818v15.109c0 1.39-0.28 2.626-0.839 3.71-0.56 1.101-1.399 1.968-2.518 2.599-1.119 0.65-2.473 0.975-4.062 0.975-2.13 0-3.881-0.497-5.253-1.489-1.354-0.993-2.121-2.347-2.302-4.062h3.764c0.198 0.686 0.623 1.228 1.273 1.625 0.668 0.415 1.471 0.623 2.41 0.623 1.101 0 1.995-0.334 2.681-1.002 0.686-0.65 1.029-1.643 1.029-2.978v-2.329c-0.487 0.704-1.164 1.291-2.031 1.76-0.849 0.469-1.823 0.704-2.924 0.704-1.264 0-2.419-0.325-3.466-0.975s-1.877-1.561-2.491-2.735c-0.596-1.191-0.894-2.554-0.894-4.089 0-1.516 0.298-2.861 0.894-4.034 0.614-1.173 1.435-2.076 2.464-2.708 1.047-0.632 2.211-0.948 3.493-0.948zM205.349 14.654c0-0.921-0.181-1.706-0.542-2.356-0.361-0.668-0.849-1.173-1.462-1.516-0.614-0.361-1.273-0.542-1.977-0.542s-1.354 0.171-1.95 0.514c-0.596 0.343-1.083 0.848-1.462 1.516-0.361 0.65-0.542 1.426-0.542 2.329s0.18 1.697 0.542 2.383c0.379 0.668 0.866 1.182 1.462 1.543 0.614 0.361 1.263 0.542 1.95 0.542 0.704 0 1.363-0.172 1.977-0.514 0.614-0.361 1.101-0.866 1.462-1.516 0.361-0.668 0.542-1.462 0.542-2.383zM217.253 5.366c-0.668 0-1.227-0.208-1.679-0.623-0.433-0.433-0.65-0.966-0.65-1.598s0.217-1.155 0.65-1.57c0.451-0.433 1.011-0.65 1.679-0.65s1.218 0.217 1.652 0.65c0.451 0.415 0.677 0.939 0.677 1.57s-0.225 1.164-0.677 1.598c-0.433 0.415-0.984 0.623-1.652 0.623zM219.122 7.153v15.001h-3.791v-15.001h3.791zM231.069 22.398c-1.228 0-2.329-0.217-3.303-0.65-0.975-0.451-1.751-1.056-2.329-1.814-0.56-0.758-0.866-1.598-0.921-2.518h3.818c0.072 0.578 0.352 1.056 0.839 1.435 0.505 0.379 1.128 0.569 1.868 0.569 0.722 0 1.281-0.144 1.679-0.433 0.415-0.289 0.623-0.659 0.623-1.11 0-0.487-0.253-0.848-0.758-1.083-0.487-0.253-1.273-0.523-2.356-0.812-1.119-0.271-2.040-0.551-2.762-0.839-0.704-0.289-1.318-0.731-1.841-1.327-0.506-0.596-0.758-1.399-0.758-2.41 0-0.83 0.235-1.588 0.704-2.274 0.487-0.686 1.173-1.228 2.058-1.625 0.902-0.397 1.958-0.596 3.168-0.596 1.787 0 3.213 0.451 4.278 1.354 1.065 0.884 1.652 2.085 1.76 3.601h-3.628c-0.054-0.596-0.307-1.065-0.758-1.408-0.433-0.361-1.020-0.542-1.76-0.542-0.686 0-1.218 0.126-1.598 0.379-0.361 0.253-0.542 0.605-0.542 1.056 0 0.505 0.253 0.894 0.758 1.164 0.505 0.253 1.291 0.514 2.356 0.785 1.083 0.271 1.977 0.551 2.681 0.839s1.309 0.74 1.814 1.354c0.523 0.596 0.794 1.39 0.812 2.383 0 0.866-0.244 1.643-0.731 2.329-0.469 0.686-1.155 1.227-2.058 1.625-0.885 0.379-1.922 0.569-3.114 0.569zM246.959 10.267v7.257c0 0.505 0.118 0.875 0.352 1.11 0.254 0.217 0.667 0.325 1.246 0.325h1.76v3.195h-2.383c-3.195 0-4.793-1.552-4.793-4.657v-7.23h-1.787v-3.114h1.787v-3.71h3.818v3.71h3.358v3.114h-3.358zM269.45 14.329c0 0.542-0.037 1.029-0.108 1.462h-10.966c0.089 1.083 0.468 1.932 1.137 2.545 0.667 0.614 1.489 0.921 2.464 0.921 1.408 0 2.41-0.605 3.006-1.814h4.089c-0.433 1.444-1.265 2.636-2.491 3.574-1.228 0.921-2.735 1.381-4.522 1.381-1.445 0-2.745-0.316-3.899-0.948-1.137-0.65-2.031-1.561-2.681-2.735-0.633-1.173-0.948-2.527-0.948-4.062 0-1.552 0.315-2.915 0.948-4.089 0.63-1.173 1.516-2.076 2.654-2.708s2.444-0.948 3.926-0.948c1.425 0 2.698 0.307 3.818 0.921 1.137 0.614 2.011 1.489 2.626 2.626 0.63 1.119 0.948 2.41 0.948 3.872zM265.524 13.246c-0.020-0.975-0.372-1.751-1.056-2.329-0.687-0.596-1.526-0.894-2.518-0.894-0.94 0-1.733 0.289-2.383 0.866-0.633 0.56-1.022 1.345-1.164 2.356h7.121zM278.469 9.482c0.487-0.794 1.118-1.417 1.895-1.868 0.793-0.451 1.696-0.677 2.708-0.677v3.98h-1.002c-1.191 0-2.095 0.28-2.708 0.839-0.596 0.56-0.894 1.534-0.894 2.924v7.473h-3.791v-15.001h3.791v2.329z"></path>
</symbol>
<symbol id="icon-snapchat" viewBox="0 0 34 32">
<path d="M33.702 25.086c-0.344 0.808-1.797 1.402-4.444 1.816-0.136 0.185-0.249 0.976-0.429 1.593-0.107 0.37-0.371 0.59-0.8 0.59l-0.020-0c-0.62 0-1.267-0.287-2.563-0.287-1.75 0-2.353 0.402-3.711 1.369-1.44 1.026-2.822 1.912-4.884 1.822-2.088 0.155-3.828-1.124-4.807-1.822-1.367-0.974-1.968-1.368-3.71-1.368-1.245 0-2.028 0.314-2.563 0.314-0.533 0-0.74-0.327-0.82-0.601-0.178-0.611-0.291-1.413-0.43-1.604-1.364-0.213-4.441-0.754-4.519-2.137-0.020-0.36 0.233-0.677 0.586-0.736 4.591-0.761 6.658-5.511 6.744-5.713 0.005-0.012 0.010-0.023 0.016-0.034 0.245-0.501 0.3-0.921 0.162-1.247-0.333-0.791-1.773-1.075-2.378-1.316-1.564-0.623-1.782-1.338-1.69-1.829 0.161-0.853 1.433-1.379 2.177-1.027 0.588 0.278 1.111 0.419 1.553 0.419 0.331 0 0.542-0.080 0.657-0.144-0.135-2.389-0.468-5.803 0.375-7.71 2.228-5.034 6.951-5.425 8.344-5.425 0.062 0 0.603-0.006 0.667-0.006 3.44 0 6.746 1.78 8.36 5.428 0.843 1.905 0.511 5.305 0.376 7.712 0.105 0.058 0.287 0.129 0.567 0.142 0.422-0.019 0.911-0.159 1.456-0.416 0.401-0.189 0.95-0.164 1.351 0.004l0.002 0.001c0.625 0.225 1.018 0.679 1.028 1.188 0.012 0.648-0.562 1.208-1.707 1.663-0.14 0.056-0.31 0.11-0.491 0.168-0.646 0.207-1.623 0.519-1.888 1.148-0.137 0.326-0.083 0.745 0.162 1.246 0.006 0.011 0.011 0.023 0.016 0.034 0.086 0.201 2.152 4.95 6.744 5.713 0.424 0.070 0.737 0.524 0.51 1.054z"></path>
</symbol>
<symbol id="icon-twitter" viewBox="0 0 40 32">
<path d="M35.888 7.975c0.025 0.35 0.025 0.7 0.025 1.050 0 10.675-8.249 22.975-23.325 22.975-4.645 0-8.959-1.325-12.589-3.625 0.66 0.075 1.294 0.1 1.98 0.1 3.832 0 7.36-1.275 10.178-3.45-3.604-0.075-6.624-2.4-7.665-5.6 0.508 0.075 1.015 0.125 1.548 0.125 0.736 0 1.472-0.1 2.157-0.275-3.756-0.75-6.574-4-6.574-7.925v-0.1c1.091 0.6 2.36 0.975 3.706 1.025-2.208-1.45-3.655-3.925-3.655-6.725 0-1.5 0.406-2.875 1.117-4.075 4.036 4.9 10.102 8.1 16.904 8.45-0.127-0.6-0.203-1.225-0.203-1.85 0-4.45 3.655-8.075 8.198-8.075 2.36 0 4.492 0.975 5.99 2.55 1.853-0.35 3.629-1.025 5.203-1.95-0.609 1.875-1.904 3.45-3.604 4.45 1.65-0.175 3.249-0.625 4.721-1.25-1.117 1.6-2.513 3.025-4.112 4.175z"></path>
</symbol>
<symbol id="icon-youtube" viewBox="0 0 45 32">
<path d="M39.903 0.957c1.927 0.527 3.446 2.079 3.961 4.050 0.936 3.572 0.936 11.025 0.936 11.025s0 7.453-0.936 11.025c-0.515 1.971-2.033 3.458-3.961 3.985-3.494 0.957-17.503 0.957-17.503 0.957s-14.009 0-17.503-0.957c-1.928-0.527-3.446-2.014-3.961-3.985-0.936-3.572-0.936-11.025-0.936-11.025s0-7.453 0.936-11.025c0.515-1.971 2.033-3.523 3.961-4.050 3.494-0.957 17.503-0.957 17.503-0.957s14.009 0 17.503 0.957zM17.818 9.265v13.534l11.709-6.767-11.709-6.767z"></path>
</symbol>
</defs>
</svg>
