<svg width="46" height="24" viewBox="0 0 46 24" fill="none" xmlns="http://www.w3.org/2000/svg">
<circle cx="35" cy="13" r="11" fill="#F2DA91"/>
<path d="M30.3793 14.745C30.4379 15.0677 30.5699 15.317 30.7753 15.493C30.9879 15.6617 31.2703 15.746 31.6223 15.746C32.0769 15.746 32.4069 15.559 32.6123 15.185C32.8176 14.8037 32.9203 14.1657 32.9203 13.271C32.7516 13.5057 32.5133 13.689 32.2053 13.821C31.9046 13.953 31.5783 14.019 31.2263 14.019C30.7569 14.019 30.3316 13.9237 29.9503 13.733C29.5763 13.535 29.2793 13.2453 29.0593 12.864C28.8393 12.4753 28.7293 12.006 28.7293 11.456C28.7293 10.642 28.9713 9.99667 29.4553 9.52C29.9393 9.036 30.5993 8.794 31.4353 8.794C32.4766 8.794 33.2099 9.12767 33.6353 9.795C34.0679 10.4623 34.2843 11.467 34.2843 12.809C34.2843 13.7623 34.1999 14.5433 34.0313 15.152C33.8699 15.7607 33.5876 16.2227 33.1843 16.538C32.7883 16.8533 32.2456 17.011 31.5563 17.011C31.0136 17.011 30.5516 16.9083 30.1703 16.703C29.7889 16.4903 29.4956 16.2153 29.2903 15.878C29.0923 15.5333 28.9786 15.1557 28.9493 14.745H30.3793ZM31.5453 12.765C31.9266 12.765 32.2273 12.6477 32.4473 12.413C32.6673 12.1783 32.7773 11.863 32.7773 11.467C32.7773 11.0343 32.6599 10.7007 32.4253 10.466C32.1979 10.224 31.8863 10.103 31.4903 10.103C31.0943 10.103 30.7789 10.2277 30.5443 10.477C30.3169 10.719 30.2033 11.0417 30.2033 11.445C30.2033 11.8337 30.3133 12.1527 30.5333 12.402C30.7606 12.644 31.0979 12.765 31.5453 12.765ZM37.465 14.745C37.5237 15.0677 37.6557 15.317 37.861 15.493C38.0737 15.6617 38.356 15.746 38.708 15.746C39.1627 15.746 39.4927 15.559 39.698 15.185C39.9033 14.8037 40.006 14.1657 40.006 13.271C39.8373 13.5057 39.599 13.689 39.291 13.821C38.9903 13.953 38.664 14.019 38.312 14.019C37.8427 14.019 37.4173 13.9237 37.036 13.733C36.662 13.535 36.365 13.2453 36.145 12.864C35.925 12.4753 35.815 12.006 35.815 11.456C35.815 10.642 36.057 9.99667 36.541 9.52C37.025 9.036 37.685 8.794 38.521 8.794C39.5623 8.794 40.2957 9.12767 40.721 9.795C41.1537 10.4623 41.37 11.467 41.37 12.809C41.37 13.7623 41.2857 14.5433 41.117 15.152C40.9557 15.7607 40.6733 16.2227 40.27 16.538C39.874 16.8533 39.3313 17.011 38.642 17.011C38.0993 17.011 37.6373 16.9083 37.256 16.703C36.8747 16.4903 36.5813 16.2153 36.376 15.878C36.178 15.5333 36.0643 15.1557 36.035 14.745H37.465ZM38.631 12.765C39.0123 12.765 39.313 12.6477 39.533 12.413C39.753 12.1783 39.863 11.863 39.863 11.467C39.863 11.0343 39.7457 10.7007 39.511 10.466C39.2837 10.224 38.972 10.103 38.576 10.103C38.18 10.103 37.8647 10.2277 37.63 10.477C37.4027 10.719 37.289 11.0417 37.289 11.445C37.289 11.8337 37.399 12.1527 37.619 12.402C37.8463 12.644 38.1837 12.765 38.631 12.765Z" fill="black"/>
<path fill-rule="evenodd" clip-rule="evenodd" d="M8.00005 1.09091e-05C6.90962 0.00107728 5.86412 0.442131 5.09157 1.22729C4.32001 2.01245 3.88613 3.07781 3.88404 4.18885V6.229H0.535287C0.239407 6.229 0 6.47296 0 6.77446V20.7273C0 22.5351 1.43858 24 3.21172 24H12.7883C14.5614 24 16 22.5351 16 20.7273V6.77446C16 6.62957 15.9435 6.49106 15.8432 6.38879C15.7428 6.28652 15.6069 6.22899 15.4647 6.22899H12.1159V4.18884C12.1139 3.07769 11.68 2.01233 10.9084 1.22728C10.1358 0.442121 9.09032 0.00106364 7.99994 0L8.00005 1.09091e-05ZM4.95454 4.18885C4.95454 2.4747 6.31786 1.08547 8.00005 1.08547C9.68225 1.08547 11.0456 2.4747 11.0456 4.18885V6.229H4.95454V4.18885ZM14.9296 7.31978V20.7271C14.9296 21.3056 14.7038 21.8606 14.3023 22.2697C13.9008 22.6788 13.3561 22.9089 12.7885 22.9089H3.21191C2.02946 22.9089 1.07076 21.932 1.07076 20.7271V7.31978H3.88423V10.2707C3.88423 10.5722 4.12365 10.8162 4.41952 10.8162C4.71435 10.8162 4.9548 10.5722 4.9548 10.2707V7.31978H11.0458V10.2707C11.0458 10.5722 11.2863 10.8162 11.5811 10.8162C11.877 10.8162 12.1164 10.5722 12.1164 10.2707V7.31978H14.9296Z" fill="black"/>
</svg>
