<svg width="22" height="22" viewBox="0 0 22 22" fill="none" xmlns="http://www.w3.org/2000/svg">
<circle cx="11" cy="11" r="11" fill="#F2DA91"/>
<path d="M6.37926 12.745C6.43792 13.0677 6.56992 13.317 6.77526 13.493C6.98792 13.6617 7.27026 13.746 7.62226 13.746C8.07692 13.746 8.40692 13.559 8.61226 13.185C8.81759 12.8037 8.92026 12.1657 8.92026 11.271C8.75159 11.5057 8.51326 11.689 8.20526 11.821C7.90459 11.953 7.57826 12.019 7.22626 12.019C6.75692 12.019 6.33159 11.9237 5.95026 11.733C5.57626 11.535 5.27926 11.2453 5.05926 10.864C4.83926 10.4753 4.72926 10.006 4.72926 9.456C4.72926 8.642 4.97126 7.99667 5.45526 7.52C5.93926 7.036 6.59926 6.794 7.43526 6.794C8.47659 6.794 9.20992 7.12767 9.63526 7.795C10.0679 8.46233 10.2843 9.467 10.2843 10.809C10.2843 11.7623 10.1999 12.5433 10.0313 13.152C9.86993 13.7607 9.58759 14.2227 9.18426 14.538C8.78826 14.8533 8.24559 15.011 7.55626 15.011C7.01359 15.011 6.55159 14.9083 6.17026 14.703C5.78892 14.4903 5.49559 14.2153 5.29026 13.878C5.09226 13.5333 4.97859 13.1557 4.94926 12.745H6.37926ZM7.54526 10.765C7.92659 10.765 8.22726 10.6477 8.44726 10.413C8.66726 10.1783 8.77726 9.863 8.77726 9.467C8.77726 9.03433 8.65992 8.70067 8.42526 8.466C8.19792 8.224 7.88626 8.103 7.49026 8.103C7.09426 8.103 6.77892 8.22767 6.54426 8.477C6.31692 8.719 6.20326 9.04167 6.20326 9.445C6.20326 9.83367 6.31326 10.1527 6.53326 10.402C6.76059 10.644 7.09792 10.765 7.54526 10.765ZM13.465 12.745C13.5237 13.0677 13.6557 13.317 13.861 13.493C14.0737 13.6617 14.356 13.746 14.708 13.746C15.1627 13.746 15.4927 13.559 15.698 13.185C15.9033 12.8037 16.006 12.1657 16.006 11.271C15.8373 11.5057 15.599 11.689 15.291 11.821C14.9903 11.953 14.664 12.019 14.312 12.019C13.8427 12.019 13.4173 11.9237 13.036 11.733C12.662 11.535 12.365 11.2453 12.145 10.864C11.925 10.4753 11.815 10.006 11.815 9.456C11.815 8.642 12.057 7.99667 12.541 7.52C13.025 7.036 13.685 6.794 14.521 6.794C15.5623 6.794 16.2957 7.12767 16.721 7.795C17.1537 8.46233 17.37 9.467 17.37 10.809C17.37 11.7623 17.2857 12.5433 17.117 13.152C16.9557 13.7607 16.6733 14.2227 16.27 14.538C15.874 14.8533 15.3313 15.011 14.642 15.011C14.0993 15.011 13.6373 14.9083 13.256 14.703C12.8747 14.4903 12.5813 14.2153 12.376 13.878C12.178 13.5333 12.0643 13.1557 12.035 12.745H13.465ZM14.631 10.765C15.0123 10.765 15.313 10.6477 15.533 10.413C15.753 10.1783 15.863 9.863 15.863 9.467C15.863 9.03433 15.7457 8.70067 15.511 8.466C15.2837 8.224 14.972 8.103 14.576 8.103C14.18 8.103 13.8647 8.22767 13.63 8.477C13.4027 8.719 13.289 9.04167 13.289 9.445C13.289 9.83367 13.399 10.1527 13.619 10.402C13.8463 10.644 14.1837 10.765 14.631 10.765Z" fill="black"/>
</svg>
