<svg width="96" height="19" viewBox="0 0 96 19" fill="none" xmlns="http://www.w3.org/2000/svg">
<path fill-rule="evenodd" clip-rule="evenodd" d="M4.73684 18.4737L5.89474 15.0789H12.8684L14.0263 18.4737H18.8158L12 0H6.81579L0 18.4737H4.73684ZM11.7105 11.6579H7.05263L9.39474 4.81579L11.7105 11.6579ZM29.4079 17.8684C28.5746 18.3772 27.6053 18.6316 26.5 18.6316C24.8158 18.6316 23.4781 18.0702 22.4868 16.9474C21.4956 15.8246 21 14.2807 21 12.3158V3.78947H25.4737V11.7632C25.4737 12.7632 25.7325 13.5395 26.25 14.0921C26.7675 14.6447 27.4649 14.9211 28.3421 14.9211C29.2544 14.9211 29.9737 14.6316 30.5 14.0526C31.0263 13.4737 31.2895 12.6491 31.2895 11.5789V3.78947H35.8158V18.4737H31.2895V15.8158C30.8684 16.6754 30.2412 17.3596 29.4079 17.8684ZM44.0789 18.4737V11.7895C44.0789 10.5789 44.4079 9.7193 45.0658 9.21053C45.7237 8.70175 46.6491 8.44737 47.8421 8.44737H49.1316V3.63158C48.0965 3.63158 47.136 3.89474 46.25 4.42105C45.364 4.94737 44.6404 5.65789 44.0789 6.55263V3.78947H39.5789V18.4737H44.0789ZM62.4605 17.75C61.3114 18.3553 60.0088 18.6579 58.5526 18.6579C57.0965 18.6579 55.7895 18.3553 54.6316 17.75C53.4737 17.1447 52.5658 16.2719 51.9079 15.1316C51.25 13.9912 50.9211 12.6579 50.9211 11.1316C50.9211 9.60526 51.25 8.27193 51.9079 7.13158C52.5658 5.99123 53.4737 5.11842 54.6316 4.51316C55.7895 3.90789 57.0965 3.60526 58.5526 3.60526C60.0088 3.60526 61.3114 3.90789 62.4605 4.51316C63.6096 5.11842 64.5132 5.99123 65.1711 7.13158C65.8289 8.27193 66.1579 9.60526 66.1579 11.1316C66.1579 12.6579 65.8289 13.9912 65.1711 15.1316C64.5132 16.2719 63.6096 17.1447 62.4605 17.75ZM58.5526 14.7368C57.693 14.7368 56.9693 14.4298 56.3816 13.8158C55.7939 13.2018 55.5 12.307 55.5 11.1316C55.5 9.95614 55.7939 9.05702 56.3816 8.43421C56.9693 7.8114 57.693 7.5 58.5526 7.5C59.4123 7.5 60.1316 7.8114 60.7105 8.43421C61.2895 9.05702 61.5789 9.95614 61.5789 11.1316C61.5789 12.307 61.2895 13.2018 60.7105 13.8158C60.1316 14.4298 59.4123 14.7368 58.5526 14.7368ZM73.6579 11.7895V18.4737H69.1579V3.78947H73.6579V6.55263C74.2193 5.65789 74.943 4.94737 75.8289 4.42105C76.7149 3.89474 77.6754 3.63158 78.7105 3.63158V8.44737H77.4211C76.2281 8.44737 75.3026 8.70175 74.6447 9.21053C73.9868 9.7193 73.6579 10.5789 73.6579 11.7895ZM86.8421 18.6579C87.9649 18.6579 88.9298 18.4035 89.7368 17.8947C90.5439 17.386 91.1404 16.693 91.5263 15.8158V18.4737H96V3.78947H91.5263V6.44737C91.1404 5.57018 90.5439 4.87719 89.7368 4.36842C88.9298 3.85965 87.9649 3.60526 86.8421 3.60526C85.6316 3.60526 84.5482 3.90789 83.5921 4.51316C82.636 5.11842 81.8816 5.98684 81.3289 7.11842C80.7763 8.25 80.5 9.58772 80.5 11.1316C80.5 12.6579 80.7763 13.9912 81.3289 15.1316C81.8816 16.2719 82.636 17.1447 83.5921 17.75C84.5482 18.3553 85.6316 18.6579 86.8421 18.6579ZM85.9605 13.7632C86.5482 14.3947 87.3246 14.7105 88.2895 14.7105C89.2368 14.7105 90.0132 14.386 90.6184 13.7368C91.2237 13.0877 91.5263 12.2193 91.5263 11.1316C91.5263 10.0263 91.2237 9.15351 90.6184 8.51316C90.0132 7.87281 89.2368 7.55263 88.2895 7.55263C87.3246 7.55263 86.5482 7.86842 85.9605 8.5C85.3728 9.13158 85.0789 10.0088 85.0789 11.1316C85.0789 12.2544 85.3728 13.1316 85.9605 13.7632Z" fill="black"/>
</svg>
