<svg aria-hidden="true" style="position:absolute;width:0;height:0;overflow:hidden" xmlns="http://www.w3.org/2000/svg"><defs><symbol id="icon-basket-copy" viewBox="0 0 21 32"><path d="M10.667 0a5.448 5.448 0 0 0-3.878 1.636 5.65 5.65 0 0 0-1.61 3.949v2.72H.714A.72.72 0 0 0 0 9.032v18.604C0 30.046 1.918 32 4.282 32h12.769c2.364 0 4.282-1.953 4.282-4.364V9.032c0-.193-.075-.378-.209-.514s-.315-.213-.505-.213h-4.465v-2.72a5.65 5.65 0 0 0-1.61-3.949A5.444 5.444 0 0 0 10.666 0zM6.606 5.585c0-2.286 1.818-4.138 4.061-4.138s4.061 1.852 4.061 4.138v2.72H6.607v-2.72zm13.3 4.175v17.876c0 .771-.301 1.511-.836 2.057s-1.262.852-2.018.852H4.283c-1.577 0-2.855-1.303-2.855-2.909V9.76h3.751v3.935a.72.72 0 0 0 .714.727.721.721 0 0 0 .714-.727V9.76h8.121v3.935c0 .402.321.727.714.727a.72.72 0 0 0 .714-.727V9.76h3.751z"/></symbol><symbol id="icon-close" viewBox="0 0 32 32"><path d="M.375 31.625c.5.5 1.31.5 1.81 0L16 17.81l13.815 13.815a1.28 1.28 0 1 0 1.81-1.81L17.81 16 31.625 2.185a1.28 1.28 0 1 0-1.81-1.81L16 14.19 2.185.375a1.28 1.28 0 1 0-1.81 1.81L14.19 16 .375 29.815c-.5.5-.5 1.31 0 1.81z"/></symbol><symbol id="icon-facebook" viewBox="0 0 17 32"><path d="M13.767 5.313h3.075V.225C16.313.156 14.488 0 12.364 0 7.93 0 4.893 2.65 4.893 7.519V12H0v5.688h4.893V32h5.997V17.688h4.695L16.331 12h-5.442V8.081c0-1.644.466-2.769 2.877-2.769z"/></symbol><symbol id="icon-full-basket" viewBox="0 0 61 32"><path fill="#f2da91" style="fill:var(--color1, #f2da91)" d="M61.333 17.333c0 8.1-6.566 14.667-14.667 14.667s-14.667-6.566-14.667-14.667c0-8.1 6.566-14.667 14.667-14.667s14.667 6.566 14.667 14.667z"/><path style="fill:var(--color2, #000)" d="M40.506 19.66c.078.43.254.763.528.997.283.225.66.337 1.129.337.606 0 1.046-.249 1.32-.748.274-.508.411-1.359.411-2.552-.225.313-.543.557-.953.733a3.211 3.211 0 0 1-1.305.264 3.75 3.75 0 0 1-1.701-.381 2.936 2.936 0 0 1-1.188-1.159c-.293-.518-.44-1.144-.44-1.877 0-1.085.323-1.946.968-2.581.645-.645 1.525-.968 2.64-.968 1.388 0 2.366.445 2.933 1.335.577.89.865 2.229.865 4.019 0 1.271-.113 2.312-.337 3.124-.215.812-.592 1.428-1.129 1.848-.528.42-1.252.631-2.171.631-.724 0-1.34-.137-1.848-.411-.509-.284-.9-.65-1.173-1.1a3.492 3.492 0 0 1-.455-1.511h1.907zm1.554-2.64c.508 0 .909-.156 1.203-.469s.44-.733.44-1.261c0-.577-.157-1.022-.469-1.335-.303-.323-.719-.484-1.247-.484s-.949.166-1.261.499c-.303.323-.455.753-.455 1.291 0 .518.147.944.44 1.276.303.323.753.484 1.349.484zm7.893 2.64c.078.43.254.763.528.997.284.225.66.337 1.129.337.606 0 1.046-.249 1.32-.748.274-.508.411-1.359.411-2.552-.225.313-.543.557-.953.733a3.211 3.211 0 0 1-1.305.264 3.75 3.75 0 0 1-1.701-.381 2.936 2.936 0 0 1-1.188-1.159c-.293-.518-.44-1.144-.44-1.877 0-1.085.323-1.946.968-2.581.645-.645 1.525-.968 2.64-.968 1.388 0 2.366.445 2.933 1.335.577.89.865 2.229.865 4.019 0 1.271-.112 2.312-.337 3.124-.215.812-.592 1.428-1.129 1.848-.528.42-1.252.631-2.171.631-.724 0-1.34-.137-1.848-.411-.508-.284-.9-.65-1.173-1.1a3.492 3.492 0 0 1-.455-1.511h1.907zm1.555-2.64c.508 0 .909-.156 1.203-.469s.44-.733.44-1.261c0-.577-.156-1.022-.469-1.335-.303-.323-.719-.484-1.247-.484s-.948.166-1.261.499c-.303.323-.455.753-.455 1.291 0 .518.147.944.44 1.276.303.323.753.484 1.349.484zM10.667 0a5.448 5.448 0 0 0-3.878 1.636 5.65 5.65 0 0 0-1.61 3.949v2.72H.714A.72.72 0 0 0 0 9.032v18.604C0 30.046 1.918 32 4.282 32h12.769c2.364 0 4.282-1.953 4.282-4.364V9.032c0-.193-.075-.378-.209-.514s-.315-.213-.505-.213h-4.465v-2.72a5.65 5.65 0 0 0-1.61-3.949A5.444 5.444 0 0 0 10.666 0zM6.606 5.585c0-2.286 1.818-4.138 4.061-4.138s4.061 1.852 4.061 4.138v2.72H6.607v-2.72zm13.3 4.175v17.876c0 .771-.301 1.511-.836 2.057s-1.262.852-2.018.852H4.283c-1.577 0-2.855-1.303-2.855-2.909V9.76h3.751v3.935a.72.72 0 0 0 .714.727.721.721 0 0 0 .714-.727V9.76h8.121v3.935c0 .402.321.727.714.727a.72.72 0 0 0 .714-.727V9.76h3.751z"/></symbol><symbol id="icon-group" viewBox="0 0 32 32"><path fill="#f2da91" style="fill:var(--color1, #f2da91)" d="M32 16c0 8.837-7.163 16-16 16S0 24.837 0 16 7.163 0 16 0s16 7.163 16 16z"/><path style="fill:var(--color2, #000)" d="M9.279 18.538c.085.469.277.832.576 1.088.309.245.72.368 1.232.368.661 0 1.141-.272 1.44-.816.299-.555.448-1.483.448-2.784-.245.341-.592.608-1.04.8a3.502 3.502 0 0 1-1.424.288 4.096 4.096 0 0 1-1.856-.416 3.208 3.208 0 0 1-1.296-1.264c-.32-.565-.48-1.248-.48-2.048 0-1.184.352-2.123 1.056-2.816.704-.704 1.664-1.056 2.88-1.056 1.515 0 2.581.485 3.2 1.456.629.971.944 2.432.944 4.384 0 1.387-.123 2.523-.368 3.408-.235.885-.645 1.557-1.232 2.016-.576.459-1.365.688-2.368.688-.789 0-1.461-.149-2.016-.448-.555-.309-.981-.709-1.28-1.2a3.813 3.813 0 0 1-.496-1.648h2.08zm1.696-2.88c.555 0 .992-.171 1.312-.512s.48-.8.48-1.376c0-.629-.171-1.115-.512-1.456-.331-.352-.784-.528-1.36-.528s-1.035.181-1.376.544c-.331.352-.496.821-.496 1.408 0 .565.16 1.029.48 1.392.331.352.821.528 1.472.528zm8.61 2.88c.085.469.277.832.576 1.088.309.245.72.368 1.232.368.661 0 1.141-.272 1.44-.816.299-.555.448-1.483.448-2.784-.245.341-.592.608-1.04.8a3.502 3.502 0 0 1-1.424.288 4.096 4.096 0 0 1-1.856-.416 3.208 3.208 0 0 1-1.296-1.264c-.32-.565-.48-1.248-.48-2.048 0-1.184.352-2.123 1.056-2.816.704-.704 1.664-1.056 2.88-1.056 1.515 0 2.581.485 3.2 1.456.629.971.944 2.432.944 4.384 0 1.387-.123 2.523-.368 3.408-.235.885-.645 1.557-1.232 2.016-.576.459-1.365.688-2.368.688-.789 0-1.461-.149-2.016-.448-.555-.309-.981-.709-1.28-1.2a3.813 3.813 0 0 1-.496-1.648h2.08zm1.696-2.88c.555 0 .992-.171 1.312-.512s.48-.8.48-1.376c0-.629-.171-1.115-.512-1.456-.331-.352-.784-.528-1.36-.528s-1.035.181-1.376.544c-.331.352-.496.821-.496 1.408 0 .565.16 1.029.48 1.392.331.352.821.528 1.472.528z"/></symbol><symbol id="icon-insta" viewBox="0 0 32 32"><path d="M31.887 9.402c.15 2.642.15 10.554 0 13.196-.128 2.564-.714 4.834-2.584 6.705-1.87 1.878-4.14 2.463-6.703 2.585-2.641.15-10.558.15-13.2 0-2.563-.128-4.826-.714-6.703-2.585S.234 25.162.113 22.598c-.15-2.642-.15-10.561 0-13.203C.242 6.832.82 4.561 2.697 2.69S6.845.234 9.4.112c2.641-.15 10.558-.15 13.2 0 2.563.129 4.833.714 6.703 2.585 1.878 1.871 2.463 4.141 2.584 6.705zm-7.345-.028a1.914 1.914 0 1 1 .002-3.828 1.914 1.914 0 0 1-.002 3.828zm-8.538-1.578c-4.54 0-8.203 3.663-8.203 8.204s3.662 8.204 8.203 8.204c4.54 0 8.203-3.663 8.203-8.204s-3.662-8.204-8.203-8.204zm0 13.538c-2.934 0-5.333-2.392-5.333-5.334s2.392-5.334 5.333-5.334c2.941 0 5.333 2.392 5.333 5.334s-2.399 5.334-5.333 5.334zm9.43 7.14a5.4 5.4 0 0 0 3.041-3.042c.716-1.801.677-5.739.651-8.293-.004-.423-.008-.809-.008-1.14s.004-.717.008-1.14c.026-2.552.066-6.486-.651-8.293a5.4 5.4 0 0 0-3.041-3.042c-1.806-.713-5.763-.675-8.315-.65-.414.004-.791.008-1.116.008-.331 0-.716-.004-1.14-.008-2.551-.026-6.484-.066-8.291.651a5.4 5.4 0 0 0-3.041 3.042c-.713 1.806-.675 5.764-.65 8.316.004.414.008.791.008 1.116 0 .331-.004.717-.008 1.14-.026 2.552-.066 6.486.651 8.293a5.4 5.4 0 0 0 3.041 3.042c1.806.713 5.763.675 8.315.65.414-.004.791-.008 1.116-.008.331 0 .716.004 1.14.008 2.551.026 6.485.066 8.291-.651z"/></symbol><symbol id="icon-location" viewBox="0 0 21 32"><path d="M10.607.319a.392.392 0 0 1 .059-.005h.043c.026 0 .051.004.075.011 5.817.061 10.548 4.483 10.548 9.968 0 1.788-.52 3.465-1.398 4.914v.011a.65.65 0 0 1-.032.065v-.001a.023.023 0 0 1-.007.007l-.004.004v.011h-.011l-.011.034-8.828 14.452a.379.379 0 0 1-.646 0L1.459 15.338a.023.023 0 0 0-.007-.007l-.004-.004a.365.365 0 0 1-.032-.054l-.011-.032v-.011a9.45 9.45 0 0 1-1.409-4.936c0-5.485 4.731-9.907 10.548-9.968.02 0 .04-.003.059-.005zm5.844 10.37c0-3.192-2.593-5.785-5.785-5.785s-5.785 2.593-5.785 5.785 2.593 5.785 5.785 5.785a5.789 5.789 0 0 0 5.785-5.785z"/></symbol><symbol id="icon-logo-aurora" viewBox="0 0 162 32"><path d="m7.978 31.114 1.95-5.718h11.745l1.95 5.718h8.067L20.211 0H11.48L.001 31.114h7.978zm11.745-11.48h-7.845L15.823 8.11l3.9 11.524zm29.806 10.46c1.403-.857 2.46-2.009 3.169-3.457v4.476h7.623V6.382h-7.623v13.119c0 1.802-.443 3.191-1.33 4.166s-2.098 1.463-3.634 1.463c-1.477 0-2.652-.466-3.524-1.396s-1.307-2.238-1.307-3.922V6.383h-7.535v14.36c0 3.309.835 5.91 2.504 7.801s3.923 2.837 6.759 2.837c1.862 0 3.494-.428 4.898-1.285zm24.709 1.02h-7.579V6.383h7.579v4.654c.946-1.507 2.164-2.704 3.657-3.59s3.11-1.33 4.853-1.33v8.111h-2.172c-2.009 0-3.568.428-4.676 1.285s-1.662 2.305-1.662 4.344v11.258zm30.959-1.219c1.935-1.019 3.457-2.489 4.565-4.41s1.662-4.166 1.662-6.737c0-2.571-.554-4.816-1.662-6.737s-2.63-3.391-4.565-4.41-4.129-1.529-6.582-1.529c-2.452 0-4.654.51-6.604 1.529s-3.479 2.489-4.587 4.41c-1.108 1.921-1.662 4.166-1.662 6.737s.554 4.816 1.662 6.737c1.108 1.921 2.637 3.39 4.587 4.41s4.151 1.529 6.604 1.529c2.453 0 4.646-.51 6.582-1.529zm-6.582-5.075c-1.448 0-2.667-.517-3.656-1.551s-1.485-2.541-1.485-4.521.495-3.494 1.485-4.543 2.209-1.573 3.656-1.573c1.448 0 2.659.524 3.634 1.573s1.463 2.563 1.463 4.543-.487 3.487-1.463 4.521-2.186 1.551-3.634 1.551zm25.44-4.964c0-2.039.554-3.487 1.662-4.344s2.667-1.285 4.676-1.285h2.172V6.116c-1.743 0-3.361.443-4.853 1.33s-2.711 2.083-3.656 3.59V6.382h-7.579v24.731h7.579V19.855zm22.205 11.568c-2.039 0-3.863-.51-5.474-1.529s-2.881-2.489-3.812-4.41c-.931-1.921-1.396-4.166-1.396-6.737 0-2.6.465-4.853 1.396-6.759s2.201-3.368 3.812-4.388 3.435-1.529 5.474-1.529c1.891 0 3.516.428 4.875 1.285s2.364 2.024 3.014 3.501V6.382h7.535v24.731h-7.535v-4.476c-.65 1.477-1.655 2.645-3.014 3.501s-2.984 1.285-4.875 1.285zm-1.484-8.244c.99 1.064 2.297 1.595 3.923 1.595 1.595 0 2.903-.547 3.922-1.64s1.529-2.556 1.529-4.388c0-1.862-.51-3.332-1.529-4.41s-2.327-1.618-3.922-1.618c-1.625 0-2.933.532-3.923 1.596s-1.485 2.541-1.485 4.432c0 1.891.495 3.368 1.485 4.432z"/></symbol><symbol id="icon-menu-burger" viewBox="0 0 43 32"><path d="M0 0h42.667v6.4H0V0zm0 12.8h42.667v6.4H0v-6.4zm42.667 12.8H0V32h42.667v-6.4z"/></symbol><symbol id="icon-search" viewBox="0 0 30 32"><path d="M3.899 3.905C6.417 1.387 9.765 0 13.326 0s6.909 1.387 9.427 3.905c4.877 4.876 5.179 12.622.905 17.853l6.263 6.263a1.348 1.348 0 0 1-1.906 1.906l-6.263-6.263a13.233 13.233 0 0 1-8.427 2.999 13.245 13.245 0 0 1-9.427-3.905C-1.3 17.561-1.3 9.103 3.898 3.904zm1.906 16.948c2.01 2.01 4.68 3.115 7.521 3.115s5.511-1.107 7.521-3.115c4.147-4.147 4.147-10.896 0-15.042-2.01-2.008-4.68-3.115-7.521-3.115S7.815 3.803 5.805 5.811c-4.147 4.148-4.147 10.896 0 15.042z"/></symbol><symbol id="icon-search-small" viewBox="0 0 32 32"><path d="M13.812 0c3.691 0 7.161 1.378 9.77 3.879 5.055 4.844 5.367 12.54.938 17.737l6.491 6.222c.546.523.546 1.37 0 1.893-.273.262-.63.392-.987.392s-.715-.131-.988-.392l-6.491-6.222c-2.459 1.93-5.512 2.98-8.734 2.98-3.691 0-7.161-1.378-9.77-3.879-5.388-5.163-5.388-13.566 0-18.73 2.61-2.501 6.08-3.879 9.771-3.879zM6.016 20.717c2.083 1.996 4.851 3.095 7.795 3.095s5.712-1.1 7.795-3.095c4.298-4.12 4.298-10.824 0-14.944-2.083-1.995-4.851-3.095-7.795-3.095s-5.712 1.1-7.795 3.095c-4.298 4.121-4.298 10.824 0 14.944z"/></symbol><symbol id="icon-snapchat" viewBox="0 0 34 32"><path d="M33.702 25.086c-.344.808-1.797 1.402-4.444 1.816-.136.185-.249.976-.429 1.593-.107.37-.371.59-.8.59h-.02c-.62 0-1.267-.287-2.563-.287-1.75 0-2.353.402-3.711 1.369-1.44 1.026-2.822 1.912-4.884 1.822-2.088.155-3.828-1.124-4.807-1.822-1.367-.974-1.968-1.368-3.71-1.368-1.245 0-2.028.314-2.563.314-.533 0-.74-.327-.82-.601-.178-.611-.291-1.413-.43-1.604-1.364-.213-4.441-.754-4.519-2.137a.705.705 0 0 1 .586-.736c4.591-.761 6.658-5.511 6.744-5.713a.354.354 0 0 1 .016-.034c.245-.501.3-.921.162-1.247-.333-.791-1.773-1.075-2.378-1.316-1.564-.623-1.782-1.338-1.69-1.829.161-.853 1.433-1.379 2.177-1.027.588.278 1.111.419 1.553.419.331 0 .542-.08.657-.144-.135-2.389-.468-5.803.375-7.71C10.432.4 15.155.009 16.548.009l.667-.006c3.44 0 6.746 1.78 8.36 5.428.843 1.905.511 5.305.376 7.712.105.058.287.129.567.142.422-.019.911-.159 1.456-.416.401-.189.95-.164 1.351.004l.002.001c.625.225 1.018.679 1.028 1.188.012.648-.562 1.208-1.707 1.663-.14.056-.31.11-.491.168-.646.207-1.623.519-1.888 1.148-.137.326-.083.745.162 1.246l.016.034c.086.201 2.152 4.95 6.744 5.713.424.07.737.524.51 1.054z"/></symbol><symbol id="icon-twitter" viewBox="0 0 40 32"><path d="M35.888 7.975c.025.35.025.7.025 1.05C35.913 19.7 27.664 32 12.588 32c-4.645 0-8.959-1.325-12.589-3.625.66.075 1.294.1 1.98.1 3.832 0 7.36-1.275 10.178-3.45-3.604-.075-6.624-2.4-7.665-5.6.508.075 1.015.125 1.548.125.736 0 1.472-.1 2.157-.275-3.756-.75-6.574-4-6.574-7.925v-.1a8.35 8.35 0 0 0 3.706 1.025C3.121 10.825 1.674 8.35 1.674 5.55c0-1.5.406-2.875 1.117-4.075 4.036 4.9 10.102 8.1 16.904 8.45a8.976 8.976 0 0 1-.203-1.85C19.492 3.625 23.147 0 27.69 0c2.36 0 4.492.975 5.99 2.55A16.29 16.29 0 0 0 38.883.6a8.078 8.078 0 0 1-3.604 4.45c1.65-.175 3.249-.625 4.721-1.25a17.488 17.488 0 0 1-4.112 4.175z"/></symbol><symbol id="icon-youtube" viewBox="0 0 45 32"><path d="M39.903.957c1.927.527 3.446 2.079 3.961 4.05.936 3.572.936 11.025.936 11.025s0 7.453-.936 11.025a5.588 5.588 0 0 1-3.961 3.985c-3.494.957-17.503.957-17.503.957s-14.009 0-17.503-.957a5.588 5.588 0 0 1-3.961-3.985C0 23.485 0 16.032 0 16.032S0 8.579.936 5.007c.515-1.971 2.033-3.523 3.961-4.05C8.391 0 22.4 0 22.4 0s14.009 0 17.503.957zM17.818 9.265v13.534l11.709-6.767-11.709-6.767z"/></symbol></defs></svg>